<svg xmlns="http://www.w3.org/2000/svg" width="34.165" height="29.512" viewBox="0 0 34.165 29.512">
    <path id="Icon_awesome-bars" data-name="Icon awesome-bars" d="M1.22,9.639H32.945a1.212,1.212,0,0,0,1.22-1.2V5.423a1.212,1.212,0,0,0-1.22-1.2H1.22A1.212,1.212,0,0,0,0,5.423V8.435A1.212,1.212,0,0,0,1.22,9.639Zm0,12.046H32.945a1.212,1.212,0,0,0,1.22-1.2V17.469a1.212,1.212,0,0,0-1.22-1.2H1.22A1.212,1.212,0,0,0,0,17.469V20.48A1.212,1.212,0,0,0,1.22,21.685Zm0,12.046H32.945a1.212,1.212,0,0,0,1.22-1.2V29.515a1.212,1.212,0,0,0-1.22-1.2H1.22A1.212,1.212,0,0,0,0,29.515v3.011A1.212,1.212,0,0,0,1.22,33.731Z" transform="translate(0 -4.219)" fill="#fff"/>
</svg>
