<svg xmlns="http://www.w3.org/2000/svg" width="38" height="38" viewBox="0 0 38 38">
  <g id="Group_15" data-name="Group 15" transform="translate(0.184 0.199)">
    <path id="Icon_awesome-user" data-name="Icon awesome-user" d="M8.844,10.107A5.054,5.054,0,1,0,3.79,5.054,5.053,5.053,0,0,0,8.844,10.107Zm3.538,1.263h-.659a6.873,6.873,0,0,1-5.756,0H5.306A5.308,5.308,0,0,0,0,16.677V18.32a1.9,1.9,0,0,0,1.9,1.9h13.9a1.9,1.9,0,0,0,1.9-1.9V16.677A5.308,5.308,0,0,0,12.382,11.371Z" transform="translate(9.662 8.573)" fill="#fff"/>
    <g id="Group_14" data-name="Group 14" transform="translate(0)">
      <g id="Ellipse_1" data-name="Ellipse 1" transform="translate(-0.184 -0.199)" fill="none" stroke="#fff" stroke-width="3">
        <circle cx="19" cy="19" r="19" stroke="none"/>
        <circle cx="19" cy="19" r="17.5" fill="none"/>
      </g>
    </g>
  </g>
</svg>
